<mxfile host="app.diagrams.net" modified="2021-09-02T11:17:19.672Z" agent="5.0 (Windows NT 10.0; Win64; x64) AppleWebKit/537.36 (KHTML, like Gecko) Chrome/89.0.4389.114 Safari/537.36" etag="Ew3eeLipE4bsYxHHvlLB" version="14.9.2" type="github">
  <diagram id="mDdXHAHIs53lfc172iaM" name="Page-1">
    <mxGraphModel dx="1662" dy="762" grid="1" gridSize="10" guides="1" tooltips="1" connect="1" arrows="1" fold="1" page="1" pageScale="1" pageWidth="827" pageHeight="1169" math="0" shadow="0">
      <root>
        <mxCell id="0" />
        <mxCell id="1" parent="0" />
        <mxCell id="VLNJXB4j1hIdG1GfbLIF-1" value="start" style="ellipse;whiteSpace=wrap;html=1;" vertex="1" parent="1">
          <mxGeometry x="294" y="40" width="120" height="80" as="geometry" />
        </mxCell>
        <mxCell id="VLNJXB4j1hIdG1GfbLIF-2" value="读星妈购DB" style="rounded=0;whiteSpace=wrap;html=1;" vertex="1" parent="1">
          <mxGeometry x="294" y="200" width="120" height="60" as="geometry" />
        </mxCell>
        <mxCell id="VLNJXB4j1hIdG1GfbLIF-3" value="入星妈优选DB" style="rounded=0;whiteSpace=wrap;html=1;" vertex="1" parent="1">
          <mxGeometry x="294" y="320" width="120" height="60" as="geometry" />
        </mxCell>
      </root>
    </mxGraphModel>
  </diagram>
</mxfile>
